<svg width="102" height="102" viewBox="0 0 102 102" fill="none" xmlns="http://www.w3.org/2000/svg">
<circle cx="50.5243" cy="50.5243" r="50.5243" fill="#E3A22C"/>
<path d="M43.7932 24.1108C45.7258 17.3388 55.323 17.3388 57.2557 24.1108L58.2138 27.4681C59.2505 31.1008 62.9827 33.2556 66.647 32.3371L70.0336 31.4882C76.8646 29.7759 81.6633 38.0874 76.7649 43.1471L74.3364 45.6555C71.7088 48.3697 71.7088 52.6792 74.3364 55.3933L76.7649 57.9018C81.6633 62.9615 76.8647 71.2729 70.0336 69.5606L66.647 68.7117C62.9827 67.7932 59.2505 69.948 58.2138 73.5807L57.2557 76.938C55.323 83.71 45.7258 83.71 43.7932 76.938L42.835 73.5807C41.7983 69.948 38.0662 67.7932 34.4018 68.7117L31.0152 69.5606C24.1842 71.2729 19.3856 62.9615 24.284 57.9018L26.7124 55.3933C29.3401 52.6792 29.3401 48.3697 26.7124 45.6555L24.284 43.1471C19.3856 38.0874 24.1842 29.7759 31.0152 31.4882L34.4018 32.3371C38.0662 33.2556 41.7983 31.1008 42.835 27.4682L43.7932 24.1108Z" fill="white"/>
</svg>
